<?xml version="1.0" standalone="no"?>
<!DOCTYPE svg PUBLIC "-//W3C//DTD SVG 20010904//EN"
 "http://www.w3.org/TR/2001/REC-SVG-20010904/DTD/svg10.dtd">
<svg version="1.0" xmlns="http://www.w3.org/2000/svg"
 width="32.000000pt" height="32.000000pt" viewBox="0 0 32.000000 32.000000"
 preserveAspectRatio="xMidYMid meet">

<g transform="translate(0.000000,32.000000) scale(0.100000,-0.100000)"
fill="#000000" stroke="none">
<path d="M68 300 c-7 -11 -18 -20 -25 -20 -16 0 -27 -62 -18 -98 3 -15 10 -52
13 -82 8 -62 17 -80 38 -80 8 0 14 -4 14 -10 0 -6 29 -10 66 -10 94 0 120 20
127 98 3 31 9 74 12 95 6 31 3 45 -18 76 -22 33 -31 39 -74 44 -26 3 -56 1
-65 -4 -12 -6 -18 -6 -18 1 0 18 -39 11 -52 -10z m42 -6 c0 -15 2 -15 23 -1
16 10 38 13 69 10 40 -5 48 -10 67 -44 14 -23 21 -50 18 -67 l-4 -27 -2 30
c-1 31 -9 34 -83 35 -102 1 -150 -11 -161 -40 -3 -8 -6 2 -6 22 -1 29 6 43 32
67 36 35 47 38 47 15z m34 -84 c13 13 49 13 42 1 -9 -13 4 -42 15 -35 6 3 7
15 3 26 -5 17 -3 20 11 15 9 -4 25 -7 36 -7 18 0 20 -6 17 -87 l-3 -88 -102
-3 -103 -3 0 89 c0 49 3 91 6 94 3 4 20 2 37 -3 20 -5 35 -5 41 1z m53 -197
c-20 -2 -52 -2 -70 0 -17 2 0 4 38 4 39 0 53 -2 32 -4z"/>
<path d="M84 145 c-17 -43 30 -70 59 -34 l19 24 15 -23 c27 -39 82 -17 68 28
-7 23 -44 27 -63 8 -10 -10 -17 -10 -32 0 -27 16 -59 15 -66 -3z m54 -16 c4
-19 -19 -31 -38 -19 -18 11 -4 42 17 38 10 -2 19 -10 21 -19z m95 7 c7 -17
-18 -40 -33 -31 -5 3 -10 15 -10 26 0 23 35 27 43 5z"/>
<path d="M138 63 c12 -2 32 -2 45 0 12 2 2 4 -23 4 -25 0 -35 -2 -22 -4z"/>
</g>
</svg>
